
<svg xmlns="http://www.w3.org/2000/svg" xmlns:xlink="http://www.w3.org/1999/xlink" width="24" height="24" viewBox="0 0 24 24">
<defs>
<filter id="filter-remove-color" x="0%" y="0%" width="100%" height="100%">
<feColorMatrix color-interpolation-filters="sRGB" values="0 0 0 0 1 0 0 0 0 1 0 0 0 0 1 0 0 0 1 0" />
</filter>
<mask id="mask-0">
<g filter="url(#filter-remove-color)">
<rect x="-2.4" y="-2.4" width="28.8" height="28.8" fill="rgb(0%, 0%, 0%)" fill-opacity="0.6"/>
</g>
</mask>
<clipPath id="clip-0">
<rect x="0" y="0" width="24" height="24"/>
</clipPath>
<g id="source-7" clip-path="url(#clip-0)">
<path fill-rule="nonzero" fill="rgb(0%, 0%, 0%)" fill-opacity="1" d="M 5.992188 1.5 C 4.105469 1.523438 2.722656 1.453125 1.59375 2.078125 C 1.027344 2.386719 0.582031 2.917969 0.335938 3.574219 C 0.0898438 4.230469 0 5.011719 0 6 L 0 16.5 C 0 17.488281 0.0898438 18.269531 0.335938 18.925781 C 0.582031 19.582031 1.027344 20.109375 1.59375 20.417969 C 2.722656 21.042969 4.105469 20.976562 5.992188 21 L 18.007812 21 C 19.894531 20.976562 21.277344 21.046875 22.40625 20.421875 C 22.972656 20.113281 23.417969 19.582031 23.664062 18.925781 C 23.910156 18.269531 24 17.488281 24 16.5 L 24 6 C 24 5.011719 23.910156 4.230469 23.664062 3.574219 C 23.417969 2.917969 22.972656 2.390625 22.40625 2.082031 C 21.277344 1.457031 19.894531 1.523438 18.007812 1.5 Z M 5.992188 1.5 "/>
</g>
</defs>
<g mask="url(#mask-0)">
<use xlink:href="#source-7"/>
</g>
<path fill-rule="nonzero" fill="rgb(84.705882%, 36.862745%, 79.215686%)" fill-opacity="1" d="M 10.476562 3.039062 C 8.140625 3.058594 5.808594 3.023438 3.484375 3.097656 C 2.792969 3.164062 1.960938 3.410156 1.753906 4.164062 C 1.421875 5.117188 1.589844 6.164062 1.535156 7.136719 C 1.523438 10.582031 1.5 14.03125 1.566406 17.464844 C 1.625 18.15625 1.871094 18.984375 2.613281 19.210938 C 3.5625 19.546875 4.539062 19.394531 5.519531 19.441406 C 7.652344 19.453125 9.792969 19.457031 11.933594 19.457031 C 14.488281 19.460938 17.046875 19.449219 19.59375 19.429688 C 20.359375 19.414062 21.367188 19.460938 21.96875 18.824219 C 22.601562 18.011719 22.402344 16.921875 22.453125 15.96875 C 22.472656 12.300781 22.496094 8.601562 22.421875 4.933594 C 22.347656 4.328125 22.167969 3.636719 21.558594 3.367188 C 20.558594 2.925781 19.417969 3.113281 18.371094 3.058594 C 15.738281 3.039062 13.105469 3.039062 10.476562 3.039062 Z M 10.476562 3.039062 "/>
<path fill-rule="nonzero" fill="rgb(100%, 100%, 100%)" fill-opacity="1" d="M 8.757812 8.984375 L 4.5 16.5 L 18 16.5 L 13.5 10.5 L 12 12.75 Z M 8.757812 8.984375 "/>
<path fill-rule="nonzero" fill="rgb(100%, 100%, 100%)" fill-opacity="1" d="M 18 7.425781 C 18.039062 8.25 17.402344 8.957031 16.574219 9 C 15.75 9.039062 15.042969 8.402344 15 7.578125 C 14.960938 6.75 15.597656 6.042969 16.421875 6.003906 C 17.25 5.960938 17.957031 6.597656 17.996094 7.421875 "/>
</svg>
