
<svg xmlns="http://www.w3.org/2000/svg" xmlns:xlink="http://www.w3.org/1999/xlink" width="24" height="24" viewBox="0 0 24 24">
<defs>
<linearGradient id="linear-pattern-0" gradientUnits="userSpaceOnUse" x1="624.000061" y1="369.238525" x2="688" y2="369.238525" gradientTransform="matrix(0.0746216, 0.0746216, -0.0809329, 0.0809329, -16.538704, -57.364889)">
<stop offset="0" stop-color="rgb(34.509804%, 51.764706%, 95.686275%)" stop-opacity="1"/>
<stop offset="0.278001" stop-color="rgb(34.509804%, 51.764706%, 95.686275%)" stop-opacity="1"/>
<stop offset="0.278001" stop-color="rgb(18.431373%, 37.254902%, 86.666667%)" stop-opacity="1"/>
<stop offset="0.707354" stop-color="rgb(18.431373%, 37.254902%, 86.666667%)" stop-opacity="1"/>
<stop offset="0.709361" stop-color="rgb(13.72549%, 30.196078%, 72.156863%)" stop-opacity="1"/>
<stop offset="1" stop-color="rgb(13.72549%, 30.196078%, 72.156863%)" stop-opacity="1"/>
</linearGradient>
</defs>
<path fill-rule="nonzero" fill="rgb(99.607843%, 88.235294%, 76.078431%)" fill-opacity="1" d="M 8.953125 19.820312 L 0 24 L 4.179688 15.046875 L 5.074219 14.148438 L 9.851562 18.925781 Z M 8.953125 19.820312 "/>
<path fill-rule="nonzero" fill="rgb(36.470588%, 36.470588%, 36.470588%)" fill-opacity="1" d="M 1.328125 21.148438 L 0 24 L 2.851562 22.671875 C 2.851562 22.671875 3.132812 22.503906 2.984375 22.355469 C 2.835938 22.210938 2.390625 22.359375 2.390625 22.359375 C 2.390625 22.359375 2.6875 21.910156 2.390625 21.613281 C 2.09375 21.316406 1.640625 21.613281 1.640625 21.613281 C 1.640625 21.613281 1.789062 21.164062 1.640625 21.015625 C 1.492188 20.867188 1.328125 21.148438 1.328125 21.148438 Z M 1.328125 21.148438 "/>
<path fill-rule="nonzero" fill="url(#linear-pattern-0)" d="M 4.179688 15.046875 C 4.777344 14.449219 5.820312 16.089844 4.925781 16.984375 C 6.417969 15.492188 8.507812 17.582031 7.015625 19.074219 C 7.910156 18.179688 9.550781 19.222656 8.953125 19.820312 L 24 4.777344 L 19.222656 0 Z M 4.179688 15.046875 "/>
</svg>
